<svg aria-hidden="true" style="position:absolute;width:0;height:0;overflow:hidden" xmlns="http://www.w3.org/2000/svg">
  <defs>
    <symbol id="icon-fb" viewBox="0 0 18 32">
      <path  d="M14.851 5.602h2.924V.655a40.727 40.727 0 0 0-4.262-.218c-4.231 0-7.124 2.582-7.124 7.311v4.076H1.613v5.538h4.776v14.187h5.724V17.362h4.76l.716-5.538h-5.476V8.293c0-1.633.436-2.691 2.738-2.691z"/>
    </symbol>
    <symbol id="icon-insta" viewBox="0 0 32 32">
      <path  d="M23.982 6.229a1.794 1.794 0 0 0-1.758 2.141 1.785 1.785 0 0 0 1.408 1.408 1.788 1.788 0 0 0 1.839-.762 1.792 1.792 0 0 0-1.49-2.788zm6.869 3.614a11.33 11.33 0 0 0-.687-3.629 7.38 7.38 0 0 0-1.732-2.643 7.01 7.01 0 0 0-2.643-1.717 10.905 10.905 0 0 0-3.629-.702c-1.583-.09-2.091-.09-6.152-.09s-4.57 0-6.153.09a10.905 10.905 0 0 0-3.629.702 7.135 7.135 0 0 0-2.643 1.717 7.01 7.01 0 0 0-1.717 2.643 10.905 10.905 0 0 0-.702 3.629c-.09 1.583-.09 2.091-.09 6.153s0 4.57.09 6.153c.026 1.241.263 2.468.702 3.629.365 1 .952 1.904 1.717 2.643a7.135 7.135 0 0 0 2.643 1.717c1.161.439 2.388.676 3.629.702 1.583.09 2.091.09 6.153.09s4.57 0 6.152-.09a10.905 10.905 0 0 0 3.629-.702c1-.365 1.904-.952 2.643-1.717a7.23 7.23 0 0 0 1.732-2.643 11.33 11.33 0 0 0 .687-3.629c0-1.583.09-2.091.09-6.153s0-4.57-.09-6.153zm-2.688 12.126a8.365 8.365 0 0 1-.508 2.778 4.556 4.556 0 0 1-1.12 1.717 4.763 4.763 0 0 1-1.717 1.12c-.89.325-1.83.497-2.778.508-1.493.075-2.046.09-5.973.09s-4.48 0-5.973-.09a8.566 8.566 0 0 1-2.897-.448 4.885 4.885 0 0 1-1.643-1.12 4.473 4.473 0 0 1-1.105-1.717 8.25 8.25 0 0 1-.597-2.837c0-1.493-.09-2.046-.09-5.973s0-4.48.09-5.973a8.281 8.281 0 0 1 .523-2.837 4.482 4.482 0 0 1 1.18-1.643 4.7 4.7 0 0 1 1.643-1.195 8.58 8.58 0 0 1 2.837-.508c1.493 0 2.046-.09 5.973-.09s4.48 0 5.973.09a8.39 8.39 0 0 1 2.778.508 4.56 4.56 0 0 1 1.777 1.195c.489.459.872 1.02 1.12 1.643a8.37 8.37 0 0 1 .508 2.837c.075 1.493.09 2.046.09 5.973s-.015 4.48-.09 5.973zM16.008 8.335a7.665 7.665 0 0 0-7.067 4.739 7.66 7.66 0 0 0 10.017 9.997 7.657 7.657 0 0 0 4.726-7.077 7.645 7.645 0 0 0-7.675-7.66zm0 12.634a4.976 4.976 0 0 1-4.595-3.07 4.967 4.967 0 0 1 1.078-5.419 4.974 4.974 0 0 1 8.11 5.42 4.965 4.965 0 0 1-2.691 2.691 4.97 4.97 0 0 1-1.903.378z"/>
    </symbol>
    <symbol id="icon-yb" viewBox="0 0 43 32">
      <path  d="M33.418 1.334c-1.995-.117-6.101-.235-12.32-.235h-.821c-5.984 0-9.973.117-11.968.352-2.699.235-4.576.939-5.632 1.877C1.738 4.149 1.034 5.675.8 7.669.683 8.96.565 11.658.565 15.765v.587c0 3.872.117 6.571.352 7.861.352 1.877.939 3.285 2.112 4.107 1.173.939 3.168 1.525 5.984 1.76 1.995.117 6.101.235 12.32.235h.821c5.984 0 9.973-.117 11.968-.352 2.699-.235 4.576-.939 5.632-1.877.939-.821 1.643-2.347 1.877-4.341.117-1.291.235-3.989.235-8.096v-.587c0-3.872-.117-6.571-.352-7.861-.352-1.877-.939-3.285-2.112-4.107-1.173-.939-3.168-1.525-5.984-1.76zm-4.576 14.432L15.935 23.51V8.022l12.907 7.744z"/>
    </symbol>

    <symbol id="logoicon" viewBox="0 0 32 32">
<path d="M0 0h32v32h-32v-32z"></path>
<path d="M-44.522-7770.435h1780.87v8098.783h-1780.87v-8098.783z"></path>
<path d="M0 0h32v32h-32v-32z"></path>
</symbol>

  </defs>
</svg>